<svg width="213" height="61" viewBox="0 0 213 61" fill="none" xmlns="http://www.w3.org/2000/svg">
<g clip-path="url(#clip0_16_5)">
<path d="M14.0184 24.333L0.573914 18.4291V10.3215L21.4906 21.2342V27.794L0.573914 38.8843V30.7733L14.0184 24.333ZM23.3882 32.837H48.0849V39.103H23.3882V32.837Z" fill="#0079B7"/>
<mask id="mask0_16_5" style="mask-type:luminance" maskUnits="userSpaceOnUse" x="0" y="10" width="49" height="30">
<path d="M14.0184 24.333L0.573914 18.4291V10.3215L21.4906 21.2342V27.794L0.573914 38.8843V30.7733L14.0184 24.333ZM23.3882 32.837H48.0849V39.103H23.3882V32.837Z" fill="white"/>
</mask>
<g mask="url(#mask0_16_5)">
<path d="M214.645 0.946396H0.35199V40.1485H214.645V0.946396Z" fill="#0079B7"/>
</g>
<path d="M78.0538 0.826813V38.939H69.9466V37.7944C67.1 38.9937 64.6437 39.5916 62.5701 39.5916C58.1396 39.5916 55.0482 38.447 53.3035 36.1613C51.5551 33.8756 50.6827 30.254 50.6827 25.2999C50.6827 20.3459 51.7272 16.7345 53.8239 14.4659C55.9167 12.1973 59.0769 11.063 63.3047 11.063C64.6055 11.063 66.4152 11.244 68.7299 11.6062L69.8892 11.8249V0.826813H78.0538ZM69.0321 32.4065L69.8853 32.2425V17.9235C67.651 17.5613 65.6576 17.3802 63.9092 17.3802C60.615 17.3802 58.9698 19.9939 58.9698 25.2213C58.9698 28.0537 59.3371 30.0661 60.0679 31.2653C60.7986 32.4611 62.0076 33.0624 63.6949 33.0624C65.3822 33.059 67.1612 32.8404 69.0321 32.4065Z" fill="#0079B7"/>
<path d="M85.614 8.23059V0.826813H93.7824V8.23059H85.614ZM85.614 38.939V11.7155H93.7824V38.939H85.614Z" fill="#0079B7"/>
<path d="M101.71 38.939V0.826813H109.878V38.939H101.71Z" fill="#0079B7"/>
<path d="M117.806 8.23059V0.826813H125.978V8.23059H117.806ZM117.806 38.939V11.7155H125.978V38.939H117.806Z" fill="#0079B7"/>
<path d="M151.524 11.7155H159.693V38.939H151.585V37.4152C148.658 38.8672 146.118 39.5916 143.964 39.5916C139.736 39.5916 136.89 38.5495 135.428 36.462C133.967 34.3744 133.236 30.8826 133.236 25.9798V11.7155H141.404V26.0892C141.404 28.7746 141.649 30.6093 142.135 31.5899C142.625 32.5704 143.803 33.059 145.67 33.059C147.457 33.059 149.144 32.8062 150.732 32.2971L151.524 32.0785V11.7155Z" fill="#0079B7"/>
<path d="M175.425 38.939H167.253V11.7155H175.364V13.2393C178.168 11.7873 180.567 11.063 182.557 11.063C185.847 11.063 188.387 11.9171 190.178 13.622C193.916 11.9171 197.333 11.063 200.42 11.063C204.445 11.063 207.238 12.1084 208.803 14.1926C210.368 16.2801 211.152 19.6113 211.152 24.1861V38.939H202.98V24.4048C202.98 22.0815 202.697 20.3664 202.127 19.2594C201.556 18.1524 200.42 17.5989 198.71 17.5989C197.409 17.5989 195.825 17.8552 193.954 18.3608L193.04 18.6341C193.2 21.3572 193.285 23.4242 193.285 24.8421V38.9424H185.112V24.948C185.112 22.2626 184.848 20.3664 184.32 19.256C183.792 18.149 182.633 17.5955 180.846 17.5955C179.262 17.5955 177.698 17.8517 176.152 18.3574L175.421 18.5761V38.939H175.425Z" fill="#0079B7"/>
<path d="M64.8504 46.7049H72.5253L72.2498 47.747H69.0551L66.5835 57.3135H65.2789L67.7505 47.747H64.5749L64.8504 46.7049Z" fill="#0079B7"/>
<path d="M75.9763 56.1177L75.873 57.0231C75.873 57.0231 74.3464 57.4672 72.8007 57.4672C71.1517 57.4672 70.2067 56.7019 70.2067 55.1371C70.2067 52.4995 71.6147 49.4963 74.8247 49.4963C76.3704 49.4963 77.3651 50.0498 77.3651 51.3686C77.3651 53.2546 75.7697 53.8217 72.5559 53.8217H71.6797C71.5611 54.2044 71.4923 54.71 71.4923 55.0654C71.4923 55.9844 72.1618 56.4593 73.1413 56.4593C74.4115 56.4559 75.9763 56.1177 75.9763 56.1177ZM72.7969 52.9129C75.0466 52.9129 76.0949 52.5747 76.0949 51.3789C76.0949 50.7024 75.6128 50.4598 74.7711 50.4598C73.2101 50.4598 72.334 51.4404 71.8519 52.9129H72.7969Z" fill="#0079B7"/>
<path d="M84.8181 49.7867L84.4929 50.675C84.4929 50.675 83.3757 50.4905 82.6373 50.4905C80.4565 50.4905 79.4771 52.7762 79.4771 54.9219C79.4771 55.9195 79.9591 56.4696 81.2447 56.4696C81.9142 56.4696 83.1691 56.2407 83.1691 56.2407L83.085 57.1461C83.085 57.1461 81.8989 57.4672 80.82 57.4672C79.0677 57.4672 78.1571 56.6233 78.1571 55.1371C78.1571 52.192 79.5995 49.4963 82.6718 49.4963C83.6512 49.4929 84.8181 49.7867 84.8181 49.7867Z" fill="#0079B7"/>
<path d="M84.6613 57.3135L87.5117 46.3052H88.801L87.5805 50.9962C87.5805 50.9962 88.9043 49.4929 90.362 49.4929C91.7356 49.4929 92.3898 50.2753 92.3898 51.4233C92.3898 52.0519 92.1832 52.8787 92.0302 53.4459L91.0354 57.3101H89.7652L90.7599 53.4937C90.8785 53.0017 91.0698 52.1749 91.0698 51.6522C91.0698 50.9313 90.7446 50.5008 89.9182 50.5008C88.7857 50.5008 87.2553 52.233 87.2553 52.233L85.9507 57.3067H84.6613V57.3135Z" fill="#0079B7"/>
<path d="M93.2315 57.3135L95.2057 49.6466H96.4606L96.1507 50.9791C96.1507 50.9791 97.4554 49.4929 98.9169 49.4929C100.29 49.4929 100.945 50.2753 100.945 51.4233C100.945 52.0519 100.757 52.8651 100.6 53.4151L99.5865 57.3101H98.3162L99.311 53.4937C99.4487 53.0017 99.6362 52.1749 99.6362 51.6522C99.6362 50.9313 99.2919 50.5008 98.4693 50.5008C97.3177 50.5008 95.8255 52.2193 95.8255 52.2193L94.5017 57.3101H93.2315V57.3135Z" fill="#0079B7"/>
<path d="M109.507 52.0998C109.507 54.9048 107.877 57.4672 105.146 57.4672C103.24 57.4672 102.211 56.7156 102.211 54.9526C102.211 52.0998 103.963 49.4929 106.538 49.4929C108.459 49.4929 109.507 50.3368 109.507 52.0998ZM108.222 52.0861C108.222 51.1363 107.69 50.4905 106.538 50.4905C104.702 50.4905 103.5 52.6669 103.5 54.9663C103.5 55.9332 104.051 56.4696 105.149 56.4696C107.036 56.4696 108.222 54.3855 108.222 52.0861Z" fill="#0079B7"/>
<path d="M113.184 46.3052H114.454L111.623 57.3135H110.334L113.184 46.3052Z" fill="#0079B7"/>
<path d="M121.681 52.0998C121.681 54.9048 120.052 57.4672 117.32 57.4672C115.415 57.4672 114.385 56.7156 114.385 54.9526C114.385 52.0998 116.138 49.4929 118.712 49.4929C120.633 49.4929 121.681 50.3368 121.681 52.0998ZM120.392 52.0861C120.392 51.1363 119.86 50.4905 118.709 50.4905C116.872 50.4905 115.671 52.6669 115.671 54.9663C115.671 55.9332 116.222 56.4696 117.32 56.4696C119.21 56.4696 120.392 54.3855 120.392 52.0861Z" fill="#0079B7"/>
<path d="M121.613 58.909C121.613 57.744 122.883 57.0231 123.878 56.5618C123.705 56.4081 123.602 56.2099 123.602 55.9024C123.602 55.2259 124.547 54.4162 124.547 54.4162C123.774 54.0951 123.361 53.5108 123.361 52.5781C123.361 51.1055 124.597 49.4963 126.812 49.4963C127.704 49.4963 128.461 49.7423 128.461 49.7423L131.002 49.6501L130.745 50.6306H129.219C129.372 50.8595 129.509 51.1978 129.509 51.6898C129.509 53.053 128.289 54.71 125.886 54.71C125.645 54.71 125.32 54.6622 125.32 54.6622C125.32 54.6622 124.788 55.2772 124.788 55.6735C124.788 56.0254 125.201 56.1177 126.384 56.2578C128.117 56.4559 128.978 56.9001 128.978 58.0822C128.978 59.5992 127.363 60.918 124.685 60.918C122.799 60.918 121.613 60.1971 121.613 58.909ZM124.547 56.9616C123.774 57.3135 122.829 57.9729 122.829 58.663C122.829 59.384 123.43 59.934 124.735 59.934C126.28 59.934 127.723 59.3054 127.723 58.1711C127.723 57.5287 127.225 57.3442 126.039 57.2042C125.27 57.129 124.788 57.0367 124.547 56.9616ZM128.293 51.7479C128.293 50.904 127.864 50.4598 126.747 50.4598C125.339 50.4598 124.585 51.6249 124.585 52.5303C124.585 53.2512 124.964 53.7568 126.009 53.7568C127.589 53.7568 128.293 52.5303 128.293 51.7479Z" fill="#0079B7"/>
<path d="M132.448 49.6466H133.737L131.744 57.3135H130.474L132.448 49.6466ZM133.221 46.6742H134.51L134.15 48.0545H132.846L133.221 46.6742Z" fill="#0079B7"/>
<path d="M140.207 56.1177L140.104 57.0231C140.104 57.0231 138.577 57.4672 137.031 57.4672C135.382 57.4672 134.437 56.7019 134.437 55.1371C134.437 52.4995 135.845 49.4963 139.055 49.4963C140.601 49.4963 141.596 50.0498 141.596 51.3686C141.596 53.2546 140 53.8217 136.786 53.8217H135.91C135.792 54.2044 135.723 54.71 135.723 55.0654C135.723 55.9844 136.392 56.4593 137.372 56.4593C138.646 56.4559 140.207 56.1177 140.207 56.1177ZM137.031 52.9129C139.281 52.9129 140.329 52.5747 140.329 51.3789C140.329 50.7024 139.847 50.4598 139.006 50.4598C137.445 50.4598 136.568 51.4404 136.086 52.9129H137.031Z" fill="#0079B7"/>
<path d="M148.88 50.7058C148.88 50.7058 147.251 50.4905 146.149 50.4905C144.947 50.4905 144.209 51.1807 144.209 51.9768C144.209 52.4824 144.534 52.6498 145.789 52.9437C147.316 53.2819 148.142 53.5552 148.142 54.6759C148.142 56.5618 146.478 57.4672 144.4 57.4672C143.076 57.4672 141.688 57.1153 141.688 57.1153L141.929 56.227C141.929 56.227 143.509 56.473 144.557 56.473C145.862 56.473 146.822 55.9674 146.822 54.9082C146.822 54.2966 146.359 54.1736 145.192 53.9276C143.75 53.6065 142.927 53.2819 142.927 52.2569C142.927 50.5999 144.385 49.4963 146.309 49.4963C147.683 49.4963 149.141 49.8175 149.141 49.8175L148.88 50.7058Z" fill="#0079B7"/>
<path d="M154.681 57.3135L153.632 60.7164H152.515L155.124 50.658H154.145L154.42 49.6466H155.365L155.553 48.9872C156.085 46.9339 156.823 46.1515 158.472 46.1515C159.126 46.1515 159.915 46.3667 159.915 46.3667L159.673 47.255C159.673 47.255 158.989 47.1491 158.438 47.1491C157.527 47.1491 157.183 47.7607 156.823 49.0043L156.651 49.6466H158.95L158.675 50.6443H156.41L154.681 57.3135Z" fill="#0079B7"/>
<path d="M165.963 52.0998C165.963 54.9048 164.334 57.4672 161.602 57.4672C159.696 57.4672 158.667 56.7156 158.667 54.9526C158.667 52.0998 160.42 49.4929 162.994 49.4929C164.915 49.4929 165.963 50.3368 165.963 52.0998ZM164.674 52.0861C164.674 51.1363 164.142 50.4905 162.991 50.4905C161.154 50.4905 159.953 52.6669 159.953 54.9663C159.953 55.9332 160.504 56.4696 161.602 56.4696C163.492 56.4696 164.674 54.3855 164.674 52.0861Z" fill="#0079B7"/>
<path d="M168.71 49.6466H169.981L169.671 50.781C169.671 50.781 171.266 49.7526 172.777 49.4792L172.433 50.6614C171.335 50.9074 169.43 51.8128 169.43 51.8128L168.003 57.3169H166.713L168.71 49.6466Z" fill="#0079B7"/>
<path d="M178.876 46.7049H180.181L177.434 57.3135H176.129L178.876 46.7049Z" fill="#0079B7"/>
<path d="M186.119 57.3135H184.883L185.208 55.9503C185.208 55.9503 183.903 57.4672 182.377 57.4672C180.95 57.4672 180.215 56.7156 180.215 55.2294C180.215 52.6396 181.761 49.4963 184.508 49.4963C185.503 49.4963 186.792 49.7731 186.792 49.7731L187.703 46.3086H188.992L186.119 57.3135ZM186.566 50.7195C186.566 50.7195 185.434 50.4905 184.504 50.4905C182.564 50.4905 181.535 53.3127 181.535 55.2123C181.535 56.0084 181.914 56.4696 182.771 56.4696C183.923 56.4696 185.533 54.6588 185.533 54.6588L186.566 50.7195Z" fill="#0079B7"/>
<path d="M194.601 56.1177L194.498 57.0231C194.498 57.0231 192.971 57.4672 191.425 57.4672C189.776 57.4672 188.831 56.7019 188.831 55.1371C188.831 52.4995 190.239 49.4963 193.449 49.4963C194.995 49.4963 195.99 50.0498 195.99 51.3686C195.99 53.2546 194.394 53.8217 191.18 53.8217H190.304C190.186 54.2044 190.117 54.71 190.117 55.0654C190.117 55.9844 190.786 56.4593 191.766 56.4593C193.04 56.4559 194.601 56.1177 194.601 56.1177ZM191.425 52.9129C193.675 52.9129 194.723 52.5747 194.723 51.3789C194.723 50.7024 194.241 50.4598 193.399 50.4598C191.838 50.4598 190.962 51.4404 190.48 52.9129H191.425Z" fill="#0079B7"/>
<path d="M196.732 55.1815C196.732 52.7899 198.155 49.4929 201.059 49.4929C202.142 49.4929 204.579 49.8755 204.579 49.8755L203.274 54.857C203.018 55.8239 202.792 57.2793 202.792 57.2793L201.537 57.3237C201.537 57.3237 201.778 56.0049 201.847 55.6838C201.847 55.6838 200.424 57.4638 198.928 57.4638C197.401 57.4672 196.732 56.5926 196.732 55.1815ZM198.056 55.1815C198.056 55.9947 198.366 56.4696 199.326 56.4696C200.409 56.4696 202.107 54.4606 202.107 54.4606L203.087 50.7058C203.087 50.7058 201.886 50.4905 201.078 50.4905C199.085 50.4905 198.056 53.2819 198.056 55.1815Z" fill="#0079B7"/>
<path d="M211.86 50.7058C211.86 50.7058 210.23 50.4905 209.128 50.4905C207.927 50.4905 207.188 51.1807 207.188 51.9768C207.188 52.4824 207.514 52.6498 208.768 52.9437C210.295 53.2819 211.121 53.5552 211.121 54.6759C211.121 56.5618 209.457 57.4672 207.38 57.4672C206.056 57.4672 204.667 57.1153 204.667 57.1153L204.908 56.227C204.908 56.227 206.488 56.473 207.536 56.473C208.841 56.473 209.801 55.9674 209.801 54.9082C209.801 54.2966 209.339 54.1736 208.172 53.9276C206.729 53.6065 205.907 53.2819 205.907 52.2569C205.907 50.5999 207.364 49.4963 209.289 49.4963C210.662 49.4963 212.12 49.8175 212.12 49.8175L211.86 50.7058Z" fill="#0079B7"/>
</g>
<defs>
<clipPath id="clip0_16_5">
<rect width="213" height="61" fill="white"/>
</clipPath>
</defs>
</svg>
