<svg width="97" height="97" viewBox="0 0 97 97" fill="none" xmlns="http://www.w3.org/2000/svg">
<g clip-path="url(#clip0_16_42)">
<path d="M48.4081 95.8296C74.7232 95.7149 95.9629 74.2946 95.8482 47.9859C95.7336 21.6773 74.308 0.442896 47.9929 0.557578C21.6778 0.67226 0.438175 22.0926 0.552829 48.4012C0.667483 74.7099 22.093 95.9443 48.4081 95.8296Z" fill="#0079B7" stroke="#0079B7" stroke-width="0.288"/>
<path d="M48.3989 93.7293C73.5537 93.6196 93.8568 73.1438 93.7472 47.9952C93.6376 22.8466 73.1568 2.54855 48.002 2.65818C22.8472 2.76781 2.54412 23.2436 2.65372 48.3922C2.76332 73.5408 23.2441 93.8389 48.3989 93.7293Z" fill="white" stroke="#0079B7" stroke-width="0.288"/>
<path d="M44.3989 12.73C47.2356 13.4228 49.4581 14.2861 51.058 15.3116C53.208 16.6957 54.8359 18.3927 55.9582 20.4024C57.0805 22.4121 57.6466 24.5586 57.6566 26.8418C57.6635 28.4451 57.3963 30.0411 56.8631 31.6384C56.3215 33.2272 55.4483 34.9855 54.2186 36.9131C53.7811 37.6033 51.6749 40.5253 47.883 45.6708C49.8237 44.7977 51.7746 44.3527 53.7358 44.3441C54.5833 44.3404 55.2982 44.3961 55.8971 44.5194C56.4876 44.6427 56.9366 44.6995 57.2441 44.6982C57.5183 44.697 57.7753 44.57 58.0069 44.3172C58.2468 44.0559 58.7663 43.1386 59.5738 41.5653L60.7391 41.9968L56.5938 49.939C54.3801 49.1932 52.5503 48.8234 51.1044 48.8297C49.4674 48.8369 48.1226 49.1617 47.07 49.8043C46.0175 50.4552 45.0002 51.5677 44.0183 53.1669L43.0356 52.6759C43.5768 51.0031 44.5648 48.917 45.9833 46.4177C48.3171 42.3196 50.0643 38.971 51.2246 36.3553C49.7411 35.3797 48.3919 34.6805 47.1686 34.2745C45.9535 33.86 44.6562 33.6558 43.2935 33.6618C42.155 33.6667 41.092 33.8141 40.0961 34.1038C39.0918 34.3936 37.9224 34.9192 36.5795 35.6805L36.5984 40.0118C36.6099 42.656 36.4851 44.5368 36.2242 45.6712C35.9549 46.8056 35.3616 47.9582 34.436 49.1374C33.5104 50.3167 32.3097 51.2956 30.8507 52.0826C29.3832 52.8697 27.8642 53.2625 26.2853 53.2693C25.6538 53.2721 25.0303 53.2077 24.4148 53.0844C24.0572 53.0188 23.0338 52.7379 21.3531 52.2499C19.6723 51.7536 18.7238 51.4808 18.5158 51.4397C18.0585 51.3578 17.5763 51.3179 17.0528 51.3201C16.2966 51.3234 15.6157 51.4355 15.0266 51.6479C14.4376 51.8604 13.7329 52.2496 12.9292 52.8071L12.2368 52.1973C13.8776 49.227 16.1231 47.7315 18.9567 47.7191C20.1118 47.7141 21.6084 47.909 23.4384 48.3124C24.5612 48.5509 25.3263 48.6735 25.7252 48.6717C26.606 48.6679 27.3606 48.3036 27.989 47.5874C28.6175 46.8711 28.9293 45.9548 28.9243 44.8216C28.918 43.3779 28.4225 42.1628 27.4376 41.185C26.4528 40.2071 25.2457 39.7171 23.8164 39.7234C22.8774 39.7275 21.8737 40.1348 20.8135 40.9452L20.1211 40.3271C20.8484 39.4089 21.5685 38.751 22.2814 38.345C22.9943 37.939 23.7911 37.734 24.6886 37.7301C25.2038 37.7279 25.7443 37.8178 26.3102 37.9917C26.8677 38.1739 27.4506 38.44 28.0505 38.7983C27.7699 37.3558 27.2749 36.2499 26.5734 35.4806C25.3544 34.1429 23.8225 33.478 21.9943 33.486C21.2132 33.4894 20.5737 33.5761 20.0675 33.7378C19.6775 33.8738 19.1968 34.1613 18.6171 34.6087L18.0232 33.7467C18.8919 32.8447 19.6952 32.2117 20.4249 31.8559C21.1546 31.5002 21.9516 31.3205 22.8324 31.3166C23.5803 31.3134 24.2622 31.4195 24.9031 31.6434C25.5355 31.8588 26.3852 32.3252 27.4603 33.0425C27.4545 31.7162 27.2339 30.6595 26.7984 29.8891C26.3712 29.1103 25.6119 28.4001 24.5288 27.7668C23.4458 27.1336 22.3973 26.8192 21.3752 26.8236C20.4529 26.8276 19.5236 27.1591 18.5875 27.8179L17.9939 27.0063C18.7217 26.2056 19.4007 25.6486 20.031 25.3521C20.8269 24.9373 21.6819 24.7321 22.6043 24.7281C23.402 24.7246 24.1421 24.8389 24.8246 25.071C25.507 25.3115 26.3733 25.7777 27.4317 26.4783L27.4078 20.9969L44.3989 12.73ZM36.5373 25.9937C38.0868 26.8851 39.4191 27.5089 40.5425 27.8565C41.6658 28.2042 42.83 28.3754 44.0515 28.3701C45.431 28.3641 46.7429 28.1401 47.9791 27.6898C49.2237 27.2395 50.6662 26.4525 52.3232 25.3121C51.3989 22.9741 49.8534 21.1006 47.6701 19.6914C45.4867 18.2823 43.0405 17.5794 40.3232 17.5913C39.1765 17.5963 37.8977 17.8201 36.5036 18.2543L36.5373 25.9937ZM35.3832 18.6034L32.4231 20.102L32.5154 41.2804C32.5261 43.7398 32.2928 45.4953 31.8071 46.5467C31.3214 47.5981 30.3868 48.6094 28.9949 49.5809C30.6646 49.4476 31.8764 49.1066 32.6136 48.5578C33.7153 47.7639 34.4674 46.8037 34.8779 45.6603C35.2884 44.5168 35.4877 42.5685 35.4757 39.8152L35.3832 18.6034ZM36.5737 34.3542C38 33.6596 39.2112 33.1759 40.2072 32.9113C41.2032 32.6468 42.2829 32.5078 43.438 32.5028C44.9005 32.4964 46.2559 32.7003 47.5208 33.1229C48.7775 33.5456 50.1434 34.2531 51.6103 35.2456C52.0623 34.0769 52.3981 32.9673 52.6178 31.9003C52.8375 30.8333 52.9495 29.8171 52.9453 28.8518C52.9423 28.1635 52.8475 27.3832 52.6692 26.5193C50.8876 27.6771 49.3703 28.4644 48.1091 28.898C46.8562 29.3316 45.5441 29.5472 44.1813 29.5531C42.993 29.5583 41.8206 29.3955 40.6641 29.0648C39.5158 28.734 38.1421 28.144 36.543 27.2948L36.5737 34.3542Z" fill="#0079B7"/>
<path d="M77.615 44.4585L78.5152 45.0925C78.1815 46.6889 77.7216 47.9416 77.1273 48.8592C76.5413 49.7851 75.6802 50.5108 74.5358 51.053C73.3914 51.5868 72.0712 51.8612 70.5838 51.8677C69.7861 51.8712 68.8219 51.825 67.683 51.7292L67.7914 76.5927C70.2561 75.8265 72.213 74.8526 73.6703 73.6543C75.1277 72.4643 76.4747 70.746 77.7198 68.5161L78.6192 68.9487C77.9142 71.151 77.0908 72.9174 76.1576 74.2478C74.6545 76.4033 72.7175 78.1158 70.338 79.3769C67.9586 80.638 65.2025 81.2796 62.0696 81.2933C59.0116 81.3066 56.1588 80.7314 53.4862 79.5595C51.9458 78.8779 50.529 77.9187 49.2355 76.6736C47.9504 75.4368 46.8967 73.9304 46.0664 72.1628C45.236 70.3953 44.82 68.3909 44.8102 66.1496C44.8004 63.8832 45.2397 61.7155 46.1198 59.6467C47.0083 57.5778 48.3127 55.5995 50.0412 53.7032C51.1413 52.5148 52.6895 51.2069 54.6943 49.7712L51.6272 49.6167C50.4884 49.5545 49.2347 49.8034 47.8577 50.355C46.4807 50.915 45.4119 51.65 44.6431 52.5767C43.8742 53.495 43.2154 54.8662 42.6583 56.6902L41.7502 56.1485C42.2884 53.821 42.9952 52.0047 43.8704 50.7082C45.0346 48.9823 46.5661 47.6409 48.4816 46.6924C50.3887 45.7355 52.5721 45.2559 55.0235 45.2452C56.7271 45.2378 59.7368 45.5857 64.061 46.2887C68.3853 46.9918 71.3535 47.3398 72.9739 47.3327C74.0625 47.328 74.8928 47.1565 75.473 46.8182C76.0449 46.4799 76.7561 45.6962 77.615 44.4585ZM57.4293 50.0111L56.1407 49.8908C53.9718 51.789 52.3762 53.6763 51.3623 55.5694C49.994 58.1188 49.3156 60.7324 49.3273 63.4186C49.3473 68.0102 51.2334 71.7542 54.9771 74.6339C56.1611 73.6298 56.8805 72.8209 57.1354 72.1902C57.3903 71.5679 57.5177 70.2998 57.5093 68.3775L57.4293 50.0111ZM66.5602 51.5159C65.022 51.3127 63.6581 51.0836 62.4688 50.8454L62.5329 65.5519C62.5404 67.2727 62.4787 68.3726 62.3394 68.835C62.2085 69.3056 61.8868 69.8358 61.3824 70.4257C60.4811 71.4536 58.6765 73.0648 55.9605 75.276C57.3262 75.9416 58.425 76.3817 59.2737 76.6131C60.7379 77.0012 62.1348 77.1882 63.481 77.1823C64.1956 77.1792 65.2589 77.0822 66.6708 76.8998L66.5602 51.5159Z" fill="#0079B7"/>
</g>
<defs>
<clipPath id="clip0_16_42">
<rect width="96" height="96" fill="white" transform="translate(0 0.418365) rotate(-0.249695)"/>
</clipPath>
</defs>
</svg>
